<svg width="101" height="36" viewBox="0 0 101 36" fill="none" xmlns="http://www.w3.org/2000/svg">
<g clip-path="url(#clip0_2117_1003)">
<path d="M90.7764 0.15224L87.1475 0.51381L83.8291 1.07995L80.9438 1.80309L78.6186 2.65469L76.1946 3.79173L74.2271 5.00489L72.3867 6.42263C72.1043 6.65574 71.8266 6.91265 71.6289 7.16955V0H91.892L90.7764 0.15224Z" fill="#0882C3"/>
<path d="M100.247 2.18839C99.3532 4.40538 97.7952 6.55102 95.6771 8.0972L93.7614 9.33891L91.6433 10.319L89.3699 11.1705L85.4114 12.279L80.5069 13.5445L77.6451 14.4723L75.221 15.5046C73.9172 16.1754 72.7499 16.8367 71.625 17.8453C71.9074 15.8852 72.6417 14.1107 73.6866 12.436L75.0375 10.6805L76.6708 8.97734L78.3558 7.58339L80.5539 6.11333L83.058 4.74317L85.7927 3.55855L89.1393 2.36917L92.8671 1.3368L96.6467 0.561324L100.069 0.0713019C100.375 0.0713019 100.709 -0.0333631 100.986 0.0475144L100.247 2.18839Z" fill="#0882C3"/>
<path d="M96.7503 15.0955C96.1619 15.3524 95.5783 15.714 94.9899 15.8187C95.1688 15.6379 95.3194 15.4571 95.4465 15.2525C95.7289 14.6578 95.7006 13.8586 95.3476 13.3162C95.0134 12.8262 94.5051 12.4646 93.9167 12.4361C93.1777 12.36 92.5611 12.7215 92.1281 13.3162C91.7704 13.83 91.7704 14.5817 92.001 15.1764C92.2834 15.7473 92.8718 16.2088 93.4837 16.2849C92.0293 16.6703 90.396 16.6703 88.838 16.6465L84.1641 16.3372L81.5094 16.2611L79.3396 16.3372L77.0661 16.6703C75.1034 17.1079 73.3242 17.9643 71.6391 19.0442L71.625 36C73.1077 33.8306 75.3528 32.5413 77.678 31.9466L79.9515 31.5089L82.4037 31.3281L90.3725 31.4566L92.8483 31.3804C96.0395 31.2234 99.3061 30.4242 100.991 27.3271V20.5381H100.351C99.918 20.6142 99.5085 20.9235 99.3296 21.3136L99.3061 29.1064H96.1384V20.3859C96.2137 19.8197 96.4726 19.3012 96.7503 18.8111C97.7199 17.3934 99.3814 17.0318 100.991 17.3411V17.2126V11.7891C99.7109 13.183 98.2565 14.2677 96.7503 15.0955ZM91.0832 29.0017H87.9955C87.972 28.897 88.0473 28.7733 87.9437 28.7162C86.2069 29.7248 83.6793 29.544 82.0225 28.5117C80.0785 27.2224 79.0854 25.1053 79.2925 22.7551C79.4714 20.6903 80.954 18.6018 82.9168 17.8501C84.9078 16.9985 87.4354 17.4362 89.0451 18.8064C89.6853 19.4011 90.2218 20.0957 90.5796 20.8188C90.909 21.5943 91.0926 22.3935 91.1397 23.2689L91.0832 29.0017ZM95.2205 29.054H92.1564V17.5456H95.2723L95.2205 29.054Z" fill="#0882C3"/>
<path d="M85.8208 20.5381C84.903 20.3573 84.0087 20.6142 83.345 21.2089C82.5307 21.9035 82.1212 22.9121 82.3519 24.0206C82.5543 24.9483 83.345 25.9046 84.2911 26.19C85.3125 26.4993 86.5127 26.2661 87.2517 25.4146C88.0425 24.6153 88.3484 23.2975 87.8401 22.2413C87.5059 21.442 86.6633 20.7474 85.8208 20.5381Z" fill="#0882C3"/>
<path d="M69.2241 17.246L70.9092 17.2365V20.4383H69.2147L69.2241 25.7286C69.403 26.1663 69.8642 26.4755 70.3208 26.5041H70.8291L70.8527 29.4727L70.8009 29.5251C69.3465 29.8343 67.8921 29.5536 66.9224 28.4404C66.4612 28.0027 66.207 27.4603 66.0517 26.8656V20.424L64.4184 20.4335V17.2317H66.0281L66.0799 15.1146H69.1676L69.2241 17.246ZM39.6556 12.8738C38.9636 13.3401 38.6106 14.1108 38.7848 14.9386C38.9119 15.5856 39.5002 16.1803 40.1121 16.3563C40.9264 16.6132 41.6936 16.2754 42.2067 15.6332C42.6679 15.0623 42.6397 14.0822 42.282 13.4923C41.7501 12.5884 40.4981 12.3315 39.6556 12.8738ZM29.9406 13.44H26.8152V22.189C26.8152 23.9255 26.787 24.8627 27.0317 25.3908C27.14 25.7524 27.2624 26.1044 27.4553 26.4422C28.3355 27.9789 29.9971 29.1873 31.6962 29.4442C33.8426 29.7534 35.7818 29.0065 37.2127 27.4032C38.5683 25.8285 38.9731 23.4307 38.2858 21.4135C37.5986 19.4011 35.5276 17.7741 33.4848 17.5171C32.2093 17.3364 30.9949 17.6456 29.95 18.0595V13.44H29.9406ZM15.2457 17.441C13.9937 17.8549 12.8452 19.1442 12.6899 20.4858L12.6758 29.0541H15.7023V21.2613L15.7776 20.7713C16.0082 20.4097 16.3895 20.305 16.7755 20.2813C17.2085 20.305 17.6933 20.3574 17.8486 20.8236L17.8627 29.0541H20.9787L21.0399 20.8997L21.1905 20.6143C21.4447 20.3574 21.7789 20.2813 22.1366 20.2813C22.5461 20.305 22.9556 20.3859 23.158 20.7951L23.1486 29.0541H26.2127L26.2221 20.6143C26.1186 19.3773 25.3043 18.1642 24.1276 17.6456C22.7249 16.8987 20.7339 17.0795 19.4819 18.031C18.3334 17.2079 16.6248 16.8987 15.2457 17.441ZM57.5793 17.6504C56.3037 18.0643 55.2306 19.3773 55.0517 20.6952V29.1588H58.1018L58.1159 21.0044C58.2712 20.6952 58.5772 20.5382 58.8831 20.462C59.5986 20.305 60.6058 20.2813 61.0389 20.9521L61.0247 29.135H64.0889V21.4421C64.1124 20.7427 63.9854 20.1005 63.7312 19.5296C62.5356 17.3126 59.7774 16.7988 57.5793 17.6504ZM9.86107 18.9396C8.27956 17.5219 5.85081 17.108 3.83627 17.8549C1.97235 18.5019 0.414379 20.4383 0.0801914 22.346C-0.301065 24.9246 0.720326 27.3271 2.94197 28.6973C4.55172 29.6773 7.05577 29.8058 8.71259 28.8257L8.76437 29.1112H11.918L11.9321 23.3831C11.8803 22.503 11.7015 21.7037 11.372 20.9568C11.0095 20.2289 10.5483 19.5343 9.86107 18.9396ZM42.1361 17.5171H39.0672L39.0766 29.0541H42.1831V17.5695L42.1361 17.5171ZM49.3611 17.5695C47.0124 17.3649 44.9461 18.345 43.6423 20.3336C42.4656 22.0891 42.3902 24.9246 43.567 26.7086C44.9696 28.9827 47.4737 29.9866 50.0013 29.4442C51.7899 29.0826 53.6773 27.4556 54.2139 25.7H50.6885C50.0483 26.2424 49.3329 26.5516 48.4668 26.4993C47.5207 26.3946 46.5229 25.8523 46.1416 24.9484L54.4634 24.9246C54.8729 23.3261 54.5151 21.6467 53.6961 20.3574C52.703 18.7826 51.0932 17.7788 49.3611 17.5695ZM8.43018 22.0082C8.81614 22.7314 8.9903 23.8161 8.60904 24.6153C8.22778 25.6239 7.15462 26.3423 6.10969 26.3709C4.90944 26.4755 3.83627 25.7524 3.35147 24.6962C2.97021 23.897 3.01728 22.7885 3.45502 22.0368C4.11869 20.9283 5.26716 20.462 6.51919 20.6428C7.25346 20.8474 8.02068 21.2613 8.43018 22.0082ZM35.2405 22.189C35.6735 23.0168 35.57 24.23 35.1134 25.0007C34.4215 26.0854 33.2495 26.5992 31.9975 26.3138C30.9761 26.0569 30.0065 25.1244 29.8511 24.0682C29.6723 22.9835 29.9782 21.8988 30.8725 21.2042C31.6868 20.5049 33.146 20.3764 34.0638 20.9473C34.5486 21.2375 34.9863 21.699 35.2405 22.189ZM51.2486 22.3222H46.0898C46.4758 21.366 47.469 20.7998 48.415 20.6714C49.6153 20.6143 50.7402 21.209 51.2486 22.3222Z" fill="black"/>
<path d="M81.3818 35.9809C82.1726 34.4062 83.9094 34.0113 85.4156 33.626L87.995 33.2121L94.5328 32.6982L96.9569 32.3129C98.4395 31.9275 99.9787 31.5374 101.005 30.1958L100.995 35.9857H81.3818V35.9809Z" fill="#0882C3"/>
</g>
<defs>
<clipPath id="clip0_2117_1003">
<rect width="101" height="36" fill="white"/>
</clipPath>
</defs>
</svg>
