<?xml version="1.0" standalone="no"?>
<!DOCTYPE svg PUBLIC "-//W3C//DTD SVG 20010904//EN"
 "http://www.w3.org/TR/2001/REC-SVG-20010904/DTD/svg10.dtd">
<svg version="1.0" xmlns="http://www.w3.org/2000/svg"
 width="512.000000pt" height="512.000000pt" viewBox="0 0 512.000000 512.000000"
 preserveAspectRatio="xMidYMid meet">

<g transform="translate(0.000000,512.000000) scale(0.100000,-0.100000)"
fill="#2283C3" stroke="#2283C3">
<path d="M501 5105 c-178 -39 -348 -172 -429 -336 -77 -155 -72 5 -72 -2209 0
-1708 2 -1995 15 -2054 39 -183 170 -352 336 -434 150 -74 105 -72 1217 -72
l992 0 0 960 0 960 -320 0 -320 0 0 320 0 320 319 0 320 0 4 463 c3 431 5 467
24 542 99 375 372 651 748 756 72 20 109 23 358 27 l277 4 0 -321 0 -321 -217
0 c-217 0 -282 -8 -343 -40 -50 -26 -113 -85 -146 -136 -61 -95 -64 -123 -64
-571 l0 -403 390 0 c215 0 390 -3 390 -8 0 -7 -146 -583 -156 -614 -5 -17 -29
-18 -315 -18 l-309 0 0 -960 0 -960 673 0 c756 0 750 0 896 72 166 82 297 251
336 434 22 104 22 4004 0 4108 -50 239 -252 441 -491 491 -101 21 -4014 21
-4113 0z m4092 -260 c72 -22 154 -81 199 -146 73 -106 68 64 68 -2139 0 -2203
5 -2033 -68 -2139 -21 -30 -63 -72 -93 -93 -98 -68 -94 -68 -698 -68 l-541 0
0 700 0 700 280 0 c154 0 280 2 280 4 0 3 65 260 145 571 80 312 145 571 145
576 0 5 -177 9 -425 9 l-425 0 0 270 c0 295 2 309 57 346 26 18 53 19 366 22
l337 3 0 576 0 575 -397 -5 c-359 -4 -408 -7 -495 -26 -446 -98 -805 -411
-949 -827 -61 -175 -70 -249 -76 -606 l-6 -328 -316 -2 -316 -3 0 -575 0 -575
318 -3 317 -2 0 -700 0 -700 -861 0 c-958 0 -916 -3 -1018 68 -30 21 -72 63
-93 93 -73 106 -68 -64 -68 2139 0 2203 -5 2033 68 2139 43 62 125 124 192
145 38 12 349 14 2033 15 1756 1 1995 -1 2040 -14z"/>
</g>
</svg>
